<svg height="496pt" viewBox="0 0 496 496" width="496pt" xmlns="http://www.w3.org/2000/svg" xmlns:xlink="http://www.w3.org/1999/xlink"><linearGradient id="a" gradientUnits="userSpaceOnUse" x1="248" x2="248" y1="496" y2="0"><stop offset="0" stop-color="#9f2fff"/><stop offset="1" stop-color="#0bb1d3"/></linearGradient><path d="m296 368h16v16h-16zm-80 16h64v-16h-64zm-32 0h16v-16h-16zm312-264v256c0 22.054688-17.945312 40-40 40h-171.054688l16 32h59.054688c22.054688 0 40 17.945312 40 40v8h-304v-8c0-22.054688 17.945312-40 40-40h59.054688l16-32h-171.054688c-22.054688 0-40-17.945312-40-40v-256c0-22.054688 17.945312-40 40-40h74.183594c25.703125-47.585938 76.039062-80 133.816406-80s108.113281 32.414062 133.816406 80h74.183594c22.054688 0 40 17.945312 40 40zm-272-36.097656v10.523437c0 18.820313-11.296875 35.503907-28.769531 42.496094-8.152344 3.253906-14.40625 9.894531-17.183594 18.222656l-1.855469 5.558594c-6.230468 18.722656-23.679687 31.296875-43.40625 31.296875h-14.761718c5.441406 17.640625 14.410156 33.726562 26.03125 47.511719 15.714843-1.480469 30.800781-7.632813 42.824218-17.664063 16.914063-14.085937 38.351563-21.847656 60.359375-21.847656h4.671875c8.761719 0 17.480469 1.214844 25.90625 3.625l33.503906 9.566406c9.824219 2.824219 16.679688 11.914063 16.679688 22.113282 0 11.28125-8.078125 20.824218-19.207031 22.671874l-4.570313.765626c-12.902344 2.144531-22.445312 12.515624-23.917968 25.226562 59.414062-14.5625 103.695312-68.121094 103.695312-131.96875 0-12.59375-1.855469-24.726562-5.070312-36.304688l-3.34375.417969c-15.050782 1.886719-27.632813 13.039063-31.304688 27.742188-5.914062 23.640625-27.058594 40.144531-51.417969 40.144531h-21.007812c-17.566407 0-31.855469-14.289062-31.855469-31.847656 0-13.105469 7.855469-24.703125 20.015625-29.578125l3.296875-1.308594c10.136719-4.066406 16.6875-13.746094 16.6875-24.65625 0-8.113281-3.632812-15.671875-9.96875-20.738281l-9.933594-7.941406c-12.769531-10.226563-20.097656-25.464844-20.097656-41.824219 0-3.289063.34375-6.539063.9375-9.746094-16.472656.855469-32.210938 4.511719-46.632812 10.738281.09375.140625.214843.269532.320312.414063l21.101562 30.160156c5.410157 7.710937 8.273438 16.792969 8.273438 26.230469zm77.59375 159.058594 4.566406-.769532c3.390625-.558594 5.839844-3.464844 5.839844-6.886718 0-3.105469-2.089844-5.863282-5.070312-6.730469l-33.503907-9.558594c-7-2-14.234375-3.015625-21.515625-3.015625h-4.671875c-18.277343 0-36.078125 6.449219-50.117187 18.152344-11.335938 9.441406-24.921875 16.039062-39.335938 19.34375 24.03125 21.382812 55.582032 34.503906 90.214844 34.503906 5.433594 0 10.769531-.40625 16.03125-1.03125.175781-21.929688 15.898438-40.402344 37.5625-44.007812zm-205.59375-90.960938c0-8.183594.832031-16.160156 2.089844-24h-50.089844v208h400v-208h-50.089844c1.257813 7.839844 2.089844 15.816406 2.089844 24 0 83.816406-68.183594 152-152 152s-152-68.183594-152-152zm161.433594-135.519531c-.847656 3.152343-1.433594 6.351562-1.433594 9.625 0 11.480469 5.136719 22.167969 14.097656 29.328125l9.925782 7.941406c10.152343 8.121094 15.976562 20.234375 15.976562 33.234375 0 17.496094-10.496094 33-26.742188 39.503906l-3.296874 1.3125c-6.050782 2.421875-9.960938 8.207031-9.960938 14.726563 0 8.734375 7.113281 15.847656 15.847656 15.847656h21.007813c17.007812 0 31.769531-11.519531 35.898437-28.03125 5.261719-21.066406 23.277344-37.03125 44.839844-39.738281l.101562-.015625c-19.253906-46.589844-63.695312-80.101563-116.261718-83.734375zm-145.433594 135.519531c0 8.199219.855469 16.191406 2.246094 24h18.53125c12.832031 0 24.175781-8.175781 28.230468-20.351562l1.855469-5.558594c4.265625-12.800782 13.898438-23.011719 26.417969-28.027344 11.375-4.550781 18.71875-15.390625 18.71875-27.628906v-10.523438c0-6.140625-1.855469-12.039062-5.375-17.0625l-21.105469-30.160156c-.511719-.734375-1.207031-1.40625-1.765625-2.136719-40.449218 23.601563-67.753906 67.34375-67.753906 117.449219zm248 312h-224c-10.433594 0-19.328125 6.6875-22.632812 16h269.257812c-3.296875-9.3125-12.191406-16-22.625-16zm-92.945312-48h-38.109376l-16 32h70.109376zm212.945312-296c0-13.230469-10.769531-24-24-24h-66.824219c2.070313 5.199219 3.816407 10.542969 5.304688 16h69.519531v240h-432v-240h69.519531c1.496094-5.457031 3.242188-10.800781 5.304688-16h-66.824219c-13.230469 0-24 10.769531-24 24v256c0 13.230469 10.769531 24 24 24h416c13.230469 0 24-10.769531 24-24zm0 0" fill="url(#a)"/></svg>