<?xml version="1.0" encoding="utf-8"?>
<!-- Generator: Adobe Illustrator 22.0.1, SVG Export Plug-In . SVG Version: 6.00 Build 0)  -->
<svg version="1.1" id="Слой_1" xmlns="http://www.w3.org/2000/svg" xmlns:xlink="http://www.w3.org/1999/xlink" x="0px" y="0px"
	 viewBox="0 0 1000 700" style="enable-background:new 0 0 1000 700;" xml:space="preserve">
<style type="text/css">
	.st0{fill:#5383A2;}
</style>
<g transform="translate(0.000000,2048.000000) scale(0.100000,-0.100000)">
	<path class="st0" d="M3660.9,19467.2c-15.4-7.7-64.6-30.9-108.8-51.9c-44.2-20.4-125-59-179-84.2c-54.1-26-113.7-54.8-133.4-63.9
		c-19-9.1-78.6-37.2-131.3-62.5c-53.4-25.3-98.3-46.3-99.7-46.3c-2.1,0-37.2-16.1-79.3-35.8c-41.4-19.7-102.5-48.4-135.5-63.9
		c-33-15.4-81.4-38.6-108.8-51.2c-26.7-12.6-77.2-35.8-112.3-52.7c-96.2-45.6-143.9-67.4-182.5-84.2c-19-8.4-77.2-35.8-128.5-60.4
		c-51.9-24.6-94.8-44.9-96.2-44.9c-0.7,0-39.3-17.5-84.9-39.3c-46.3-21.1-97.6-45.6-115.1-53.4c-17.6-8.4-63.9-30.2-102.5-48.4
		c-39.3-19-73-34.4-75.8-34.4c-2.1,0-35.8-15.4-75.8-34.4c-40-19-98.3-46.3-129.9-61.1l-58.3-26.7l-1.4-361.5
		c-2.1-355.9-2.1-362.2-16.1-364.3c-7.7-1.4-23.2-6.3-35.1-11.9c-11.2-4.9-38.6-14.7-59.7-21.1s-48.4-16.1-61.1-21.8
		c-11.9-5.6-28.1-9.8-35.1-9.8c-7,0-16.1-2.8-19.7-6.3c-4.2-3.5-37.2-15.4-73.7-27.4c-52.7-17.6-287.1-97.6-337-115.8
		c-5.6-2.1-44.9-15.4-87.8-29.5c-42.1-14-83.5-28.1-91.3-31.6s-29.5-11.2-49.1-16.8c-19-5.6-109.5-35.8-200.1-66.7l-165-56.2
		l-2.1-1281.9l-1.4-1281.2h-42.1h-42.1l1.4-155.8l2.1-156.6l201.5-2.1l202.2-1.4l1.4,1322.6c1.4,727.3,4.2,1324.7,6.3,1326.8
		s27.4,11.9,56.2,21.8c28.8,9.8,58.3,21.1,66,23.9c7.7,3.5,40.7,14.7,73.7,25.3c33,9.8,66,21.1,73.7,24.6
		c7.7,3.5,49.1,18.3,91.3,31.6c42.8,14,83.5,28.1,91.3,31.6c7.7,3.5,26.7,9.8,42.1,14s34.4,10.5,42.1,14s49.1,17.6,91.3,31.6
		c42.8,14,83.5,28.1,91.3,31.6c7.7,3.5,30.2,11.2,49.1,16.8c31.6,9.1,342.6,115.8,368.6,125.7c5.6,2.1,62.5,21.8,126.4,42.8
		s152.3,51.2,198,66.7c44.9,16.1,86.3,28.8,92.7,28.8c10.5,0,11.2-143.9,12.6-1588l2.1-1588.7h530h530l2.1,152.3l1.4,152.3
		l-85.6,2.1l-86.3,2.1l-2.1,1482.7l-1.4,1482.7l-36.5,25.3c-20.4,13.3-40.7,24.6-45.6,24.6s-9.1,2.1-9.1,5.6c0,2.8-6.3,8.4-14,11.9
		c-23.2,11.2-282.2,166.4-313.8,187.4c-16.1,10.5-32.3,19.7-35.8,19.7c-4.2,0-8.4,2.1-9.8,5.6c-0.7,2.8-30.2,21.8-64.6,42.1
		c-40,23.9-64.6,34.4-70.2,30.9c-4.2-3.5-75.8-29.5-158.7-57.6s-153.7-54.1-157.3-56.9c-4.2-3.5-13.3-6.3-21.1-6.3
		c-8.4,0-23.9-4.9-35.1-10.5c-11.2-6.3-32.3-14-45.6-17.6c-26-6.3-84.2-26-109.5-36.5c-24.6-9.8-75.1-26.7-81.4-26.7
		c-3.5,0-6.3,86.3-6.3,192.4v192.4l23.2,10.5c11.9,5.6,51.2,23.9,85.6,40c35.1,16.1,85.6,40,112.3,52.7
		c27.4,12.6,65.3,30.2,84.2,38.6c19.7,8.4,63.9,28.8,98.3,45.6c35.1,16.1,79.3,37.2,98.3,45.6c19.7,8.4,61.8,28.8,94.8,43.5
		c33,15.4,79.3,37.2,103.2,48.4c23.9,10.5,69.5,32.3,101.8,47.7c31.6,14.7,74.4,34.4,93.4,42.8c19.7,8.4,63.9,28.8,98.3,45.6
		c35.1,16.8,80.7,37.9,101.8,47.7c35.1,16.1,76.5,35.1,203.6,94.8c25.3,11.2,68.1,30.9,94.8,43.5c27.4,11.9,72.3,33.7,100.4,47
		c28.1,13.3,53.4,22.5,56.2,19.7c2.8-2.8,4.9-1018.6,4.9-2257.7c0-2056.2,0.7-2253.5,11.2-2256.3c6.3-2.1,265.4-2.8,575.7-2.1
		l564.4,2.1l2.1,155.8l1.4,155.1l-50.5,4.9c-28.1,2.1-81.4,3.5-117.9,2.1l-66.7-2.1v2163.6v2162.9l-294.8,174.1
		c-162.2,96.2-304,183.2-314.5,193.8C3701.6,19484.7,3697.4,19485.4,3660.9,19467.2z"/>
	<path class="st0" d="M7862.5,18066.7v-101.8h126.4h126.4v101.8v101.8h-126.4h-126.4V18066.7z"/>
	<path class="st0" d="M5019.3,18120c-162.2-31.6-256.2-121.4-275.2-263.3c-14.7-107.4,11.2-207.8,68.8-266.8
		c28.8-29.5,77.2-63.2,101.1-70.9c9.8-2.8,21.1-7.7,24.6-10.5c10.5-7.7,70.9-26,151.6-45.6c89.9-22.5,108.8-29.5,138.3-50.5
		c19-14,22.5-21.1,22.5-44.9c0-15.4-4.9-33-10.5-38.6c-19-19-59-30.9-106-30.9c-92,0-125.7,21.8-139,89.2l-8.4,40.7l-132,2.1
		l-132.7,1.4l4.9-55.5c4.9-61.1,26-132.7,48.4-165.7c11.9-18.3,63.9-70.2,85.6-86.3c21.1-15.4,77.2-36.5,126.4-47.7
		c40-9.1,85.6-12.6,158-12.6c141.8,0,211.3,21.1,294.8,89.2c16.1,12.6,63.2,75.8,63.2,84.9c0,4.2,4.9,16.8,10.5,27.4
		c16.8,33,26.7,108.1,22.5,178.3c-9.8,167.1-101.1,239.4-384,304c-84.9,19.7-126.4,48.4-126.4,87.8c0,19,5.6,28.1,26,44.9
		c24.6,20.4,30.9,21.8,79.3,21.8c40,0,58.3-3.5,75.1-14c25.3-15.4,44.2-46.3,44.2-73.7v-17.5h133.4c115.8,0,133.4,1.4,133.4,11.2
		c0,5.6-3.5,33.7-7.7,61.1c-19.7,127.8-116.5,221.1-259,248.5C5167.4,18133.3,5093.7,18134,5019.3,18120z"/>
	<path class="st0" d="M5924.9,17883.4c-73-14.7-136.2-47.7-186-98.3c-34.4-34.4-47-54.1-65.3-100.4
		c-32.3-82.1-38.6-122.9-34.4-239.4c3.5-103.9,9.1-132,44.2-207.1c16.1-33.7,18.3-36.5,58.3-77.9c40.7-41.4,70.2-59.7,130.6-80.7
		c42.8-14,62.5-16.1,154.4-16.8c92.7,0,110.9,2.1,154.4,16.8c64.6,21.8,84.2,33,124.3,70.2c47.7,44.2,82.8,123.6,82.8,188.8v29.5
		l-120.7-1.4l-120.7-2.1l-5.6-26.7c-8.4-38.6-26-61.1-60.4-75.8c-54.8-23.9-122.9-11.9-158.7,27.4c-18.3,20.4-31.6,63.2-32.3,101.8
		v33H6139h249.2v61.8c0,63.9-13.3,143.9-33,198c-22.5,61.1-79.3,129.2-129.2,155.1c-70.2,35.8-99,42.1-192.4,44.9
		C5983.9,17885.5,5934.7,17884.8,5924.9,17883.4z M6081.4,17679.8c28.1-19,54.1-66,54.1-98.3v-16.8h-123.6h-124.3l4.9,29.5
		C5906.6,17679.1,6011.9,17726.9,6081.4,17679.8z"/>
	<path class="st0" d="M6861.4,17882c-32.3-10.5-79.3-46.3-94.8-72.3c-33.7-55.5-32.3-55.5-37.9,2.8l-4.9,54.1h-104.6h-104.6v-393.1
		v-393.1H6641h126.4v195.2c0,186,7,275.2,21.8,275.2c3.5,0,6.3,4.2,6.3,9.1c0,12.6,35.1,44.2,56.2,51.2c9.8,2.8,46.3,7,80.7,9.1
		l63.2,4.2l2.1,122.2c0.7,73.7-0.7,125-4.9,129.2C6984.2,17884.1,6882.5,17889,6861.4,17882z"/>
	<path class="st0" d="M8539.9,17883.4c-148.1-35.8-216.9-96.2-268.9-238c-21.1-57.6-27.4-174.1-15.4-268.2
		c7.7-54.1,12.6-73,33.7-121.5c12.6-28.1,64.6-105.3,70.9-105.3c2.1,0,11.9-7,21.8-16.1c28.1-25.3,49.8-36.5,101.8-54.8
		c42.1-14,62.5-16.1,143.9-16.1c99.7,0,146,8.4,207.1,40.7c82.1,42.1,134.8,118.6,153.7,223.9c6.3,33.7,9.8,64.6,7.7,68.1
		c-2.8,4.2-52.7,7-119.3,7h-114.4l-4.9-34.4c-9.1-68.1-42.1-98.3-111.6-103.9c-63.2-5.6-103.2,14-125,59.7
		c-14,30.2-15.4,43.5-16.1,148.8c0,99.7,2.1,120,13.3,145.3c23.9,52.7,70.2,73,141.1,62.5c40.7-6.3,76.5-40,83.5-79.3
		c9.8-55.5-1.4-51.2,134.8-51.2h122.9l-3.5,23.2c-14,84.9-19.7,106.7-35.1,139.7c-34.4,73-98.3,123.6-200.8,160.1
		C8736.5,17882,8566.6,17889.7,8539.9,17883.4z"/>
	<path class="st0" d="M9378.8,17880.6c-140.4-34.4-219-108.8-264-249.2c-16.8-52.7-19-245-3.5-301.9
		c35.1-129.2,113-214.8,228.9-251.3c67.4-21.1,231-22.5,294.8-2.1c42.1,13.3,89.9,34.4,104.6,47c56.2,47,75.1,73,94.8,131.3
		c7.7,23.9,14.7,59.7,14.7,78.6v35.1l-120.7-1.4l-120.7-2.1l-5.6-30.9c-2.8-16.8-10.5-37.2-17.5-44.2
		c-19.7-21.8-65.3-40.7-97.6-40.7c-33.7,0-84.9,19.7-101.8,39.3c-16.1,19-34.4,77.2-34.4,109.5v26.7h249.9h250.6l-3.5,93.4
		c-3.5,80.7-7,100.4-26,151.6c-39.3,106.7-96.2,162.9-204.3,200.8C9581,17883.4,9417.5,17890.4,9378.8,17880.6z M9528.4,17690.4
		c40-21.1,68.1-63.9,68.1-105.3v-20.4h-122.9c-92,0-122.9,2.1-122.9,8.4c0,14.7,23.2,71.6,34.4,85.6
		C9413.9,17692.5,9491.2,17709.3,9528.4,17690.4z"/>
	<path class="st0" d="M7006,17858.9c0-8.4,45.6-152.3,56.2-178.3c3.5-7.7,17.6-50.5,31.6-94.8c48.4-155.8,96.2-305.4,101.8-319.4
		c2.8-7.7,14-42.1,24.6-77.2c9.8-34.4,21.1-68.8,25.3-75.1c3.5-7,6.3-17.5,6.3-23.2c0-9.1,19-10.5,135.5-10.5H7522l23.9,75.8
		c13.3,41.4,43.5,135.5,67.4,208.5c23.9,73.7,56.9,176.2,73,228.2c16.8,52,33,101.1,35.8,108.8c3.5,7.7,13.3,36.5,21.1,63.2
		c8.4,27.4,19.7,61.1,25.3,75.8l9.8,26h-125.7c-124.3,0-125.7,0-129.2-15.4c-2.1-9.1-9.1-35.1-14.7-58.3
		c-5.6-23.2-16.8-68.8-25.3-101.8c-7.7-33-19-77.2-24.6-98.3c-4.9-21.1-12.6-52.7-16.8-70.2c-4.2-17.6-10.5-42.8-14.7-56.2
		c-3.5-13.3-9.8-37.9-14-54.1c-4.2-16.8-10.5-30.2-13.3-30.2c-3.5,0-9.1,14.7-13.3,33.7c-7.7,34.4-22.5,93.4-40.7,166.4
		c-6.3,23.2-15.4,59.7-20.4,80.7s-9.8,38.6-10.5,38.6c-0.7,0-7,26.7-14.7,59.7c-7.7,33-16.1,69.5-19,80.7l-5.6,21.1l-134.8,2.1
		C7041.1,17866.6,7006,17864.5,7006,17858.9z"/>
	<path class="st0" d="M7862.5,17473.4v-393.1h126.4h126.4v393.1v393.1h-126.4h-126.4V17473.4z"/>
	<path class="st0" d="M1916.3,17326.7c-5.6-3.5-78.6-28.8-161.5-56.2c-82.8-28.1-155.8-53.4-161.5-56.2c-6.3-3.5-21.8-8.4-35.1-11.2
		c-13.3-2.8-27.4-7.7-31.6-9.8c-3.5-2.8-21.1-9.1-38.6-14s-51.9-16.1-77.2-24.6c-25.3-9.1-67.4-23.2-94.8-31.6
		c-26.7-8.4-55.5-18.3-63.2-21.8c-7.7-2.8-58.3-20.4-112.3-37.9c-54.1-18.3-155.8-51.9-226.1-75.8l-128.5-42.8v-245.7v-245l16.1,3.5
		c8.4,2.1,66,18.3,127.8,35.8c61.8,17.5,123.6,35.1,136.9,38.6c92,26,132,37.9,147.4,42.8c9.8,3.5,66.7,19.7,126.4,35.1
		c59.7,15.4,116.5,31.6,126.4,35.1c9.8,2.8,35.1,10.5,56.2,16.8c21.1,5.6,61.8,16.8,89.9,24.6c27.4,8.4,73.7,21.1,101.8,28.8
		c27.4,7.7,60.4,16.8,71.6,20.4c11.9,3.5,40,11.9,63.2,18.3c23.2,7,56.9,16.8,75.8,22.5l33,10.5v273.1v273.1H1943
		C1933.9,17333,1922,17330.2,1916.3,17326.7z"/>
	<path class="st0" d="M7518.5,16672.4v-182.5l-30.2,24.6c-53.4,43.5-90.6,56.9-164.3,56.2c-57.6-0.7-69.5-2.8-109.5-22.5
		c-46.3-23.2-85.6-56.9-93.4-80c-2.1-7-7-12.6-10.5-12.6s-6.3-3.5-6.3-7c0-4.2-6.3-20.4-13.3-37.2c-33-71.6-38.6-108.1-38.6-243.6
		c-0.7-132,9.1-202.2,35.1-252c5.6-9.8,9.8-21.8,9.8-26c0-9.8,47-72.3,66.7-88.5c7.7-7,30.9-21.1,51.9-31.6
		c34.4-17.6,44.9-19.7,112.3-19.7c69.5,0,77.2,1.4,111.6,20.4c34.4,19.7,92.7,75.1,92.7,89.2c0,3.5,2.8,6.3,6.3,6.3
		s8.4-13.3,11.2-29.5c2.1-16.8,7.7-40.7,11.2-52.7l7.7-23.2h101.1h101.1v547.6v547.6h-126.4h-126.4V16672.4z M7443.4,16346.7
		c58.3-23.9,78.6-84.9,73.7-214.1c-2.8-72.3-5.6-85.6-21.8-113c-23.2-39.3-44.2-51.2-89.2-51.2c-40.7,0-66,15.4-87.8,52.7
		c-12.6,21.1-14,36.5-14,139.7c0,134.8,6.3,153.7,59.7,181.1C7400.5,16360,7410.4,16360.7,7443.4,16346.7z"/>
	<path class="st0" d="M4696.4,16662.6v-129.9h143.9h143.9v-386.1v-386.1h140.4H5265l1.4,384.7l2.1,384l142.5,2.1l141.8,1.4v129.9
		v129.9h-428.2h-428.2V16662.6z"/>
	<path class="st0" d="M1888.3,16567.8c-76.5-21.1-492.1-127.1-537-137.6c-23.2-4.9-67.4-16.1-98.3-23.9
		c-118.6-31.6-304-78.6-354.5-90.6c-28.8-7-66-16.8-82.1-21.1l-30.2-8.4v-238c0-138.3,2.8-239.4,6.3-242.2
		c6.3-3.5,151.6,21.8,221.8,38.6c15.4,3.5,56.9,11.9,91.3,18.3c35.1,6.3,83.5,15.4,108.8,20.4s72.3,14.7,105.3,21.1
		c33,6.3,80,16.1,105.3,21.1c25.3,4.9,74.4,14,108.8,20.4c35.1,6.3,75.8,14.7,91.3,18.3c30.9,7,187.4,37.9,268.2,52.7
		c28.1,4.9,54.1,11.2,57.6,14c5.6,2.8,7.7,93.4,7.7,278c0,255.5-0.7,273.1-11.9,272.4C1939.5,16580.5,1913.5,16574.2,1888.3,16567.8
		z"/>
	<path class="st0" d="M6021.1,16567.8c-47-11.9-92.7-48.4-115.8-93.4c-16.8-33-23.2-25.3-28.8,33l-4.2,42.8l-103.2,2.1l-103.9,2.1
		v-397.3v-396.6h126.4h126.4v205.7c0,173.4,2.1,211.3,11.9,240.8c16.8,51.2,27.4,63.9,68.8,83.5c30.2,14,48.4,17.6,90.6,17.6h53.4
		v125.7c0,69.5-2.8,127.8-6.3,129.9C6123.6,16572,6047,16574.2,6021.1,16567.8z"/>
	<path class="st0" d="M6472.5,16567.8c-92.7-11.2-153.7-39.3-205-92.7c-36.5-38.6-54.8-82.1-54.8-133.4v-33.7h121.5h121.4l8.4,23.9
		c11.9,33.7,37.9,48.4,85.6,49.1c66.7,1.4,96.2-24.6,103.2-89.9l3.5-37.2l-33-4.2c-18.3-2.8-54.8-4.9-80-4.9
		c-52.7,0-180.4-22.5-205.7-36.5c-110.9-61.1-146-117.9-146-238c0-80,16.1-127.1,56.2-167.8c47-47,89.2-59,198.7-54.8
		c47,1.4,92,6.3,99.7,10.5c7.7,4.9,28.8,15.4,47,23.9c18.3,8.4,42.1,24.6,52.7,35.8c19.7,21.1,37.2,26,37.2,10.5
		c0-10.5,35.1-44.9,66.7-65.3c30.2-19,191.7-19.7,226.8-0.7l23.2,12.6l-2.1,85.6l-2.1,85.6l-36.5,2.1c-25.3,1.4-37.9,5.6-41.4,14
		c-3.5,6.3-7.7,105.3-9.8,219c-3.5,200.1-4.2,208.5-20.4,240.8c-32.3,66-93.4,112.3-178.3,134.1
		C6659.2,16569.9,6532.8,16575.6,6472.5,16567.8z M6655,16067.3c0-70.9-19.7-104.6-73-127.1c-70.9-29.5-136.9,1.4-137.6,63.9
		c0,24.6,4.2,33.7,23.2,52.7c28.8,28.8,80,45.6,140.4,47l47,0.7V16067.3z"/>
	<path class="st0" d="M8193.8,16567.8c-68.8-10.5-143.9-46.3-188.8-91.3c-71.6-71.6-107.4-179-107.4-319.4s33.7-240.8,102.5-308.9
		c49.8-49.1,61.8-56.9,117.9-78.6c47.7-19,55.5-19.7,172.7-19.7c110.2,0,127.1,1.4,162.9,15.4c63.9,25.3,77.2,33.7,125,81.4
		c37.9,37.9,62.5,94.8,68.1,160.8l4.2,40.7h-119.3h-120l-11.9-36.5c-6.3-20.4-18.3-42.1-26-49.1c-42.1-35.8-146-34.4-181.8,3.5
		c-22.5,23.2-41.4,72.3-41.4,107.4v30.9h249.9h250.6l-3.5,89.9c-9.1,226.1-107.4,348.2-301.2,373.5
		C8286.5,16575.6,8247.2,16575.6,8193.8,16567.8z M8343.4,16367.1c22.5-14.7,44.2-53.4,49.8-87.8l4.9-27.4h-124.3
		c-138.3,0-133.4-2.1-109.5,50.5c28.1,62.5,65.3,84.9,132,78.6C8312.5,16379.7,8333.5,16373.4,8343.4,16367.1z"/>
	<path class="st0" d="M1922,15805.4c-2.1-2.1-33.7-8.4-69.5-13.3c-36.5-5.6-97.6-14.7-136.2-21.1s-110.9-17.6-161.5-24.6
		c-49.8-7.7-122.2-18.3-159.4-24.6c-213.4-33.7-235.2-37.2-426.8-66c-51.9-7.7-113.7-17.6-136.9-21.8c-23.2-3.5-42.8-7-43.5-7
		c-5.6,0-1.4-470.4,4.9-473.9c3.5-2.1,44.9-0.7,92.7,3.5c47.7,4.2,163.6,13.3,258.3,21.1c209.9,17.6,366.5,30.9,519.5,46.3
		c63.9,5.6,155.1,14.7,203.6,19l87.8,8.4l2.1,279.4l1.4,278.7h-16.1C1933.2,15809.6,1924.1,15807.5,1922,15805.4z"/>
	<path class="st0" d="M4773.6,14963.7v-516H4914h140.4v516v516H4914h-140.4V14963.7z"/>
	<path class="st0" d="M8603.8,15464.3c-16.8-83.5-34.4-159.4-40-172.7c-3.5-9.1-6.3-23.9-6.3-33c0-16.8-1.4-17.6-56.2-17.6h-56.9
		l2.1-99.7l2.1-100.4l47.7-2.1l47-2.1v-209.2c0-116.5,3.5-226.8,7.7-249.2c11.9-66.7,41.4-103.2,108.1-134.8
		c23.9-11.2,42.8-13.3,122.9-12.6c65.3,0.7,103.2,4.9,122.9,11.9l28.1,10.5l2.1,88.5l2.1,88.5h-49.1c-41.4,0-52,2.8-68.8,16.8
		l-19.7,16.8l-2.1,186.7l-2.1,186.7h70.2h70.9v101.8v101.8h-70.2h-70.2v119.3v119.3h-94.8
		C8608.7,15479.7,8606.6,15479,8603.8,15464.3z"/>
	<path class="st0" d="M5640.6,15250.1c-50.5-13.3-128.5-62.5-151.6-96.9c-9.1-13.3-19-24.6-21.8-24.6s-6.3,18.3-9.1,40.7
		c-8.4,79.3,3.5,71.6-115.8,71.6h-105.3v-396.6v-396.6h129.9h129.9v248.5c0,252.7,2.8,280.8,27.4,305.4
		c49.1,48.4,102.5,47.7,142.5-2.8l16.1-20.4l2.1-265.4l2.1-265.4h126.4h127.1l-3.5,304c-2.8,327.8-4.9,344-44.2,405.8
		c-34.4,55.5-65.3,76.5-134.1,94.8C5712.2,15264.2,5695.3,15264.2,5640.6,15250.1z"/>
	<path class="st0" d="M7121.8,15248.7c-177.6-36.5-271.7-158-282.2-366.5c-8.4-162.2,25.3-278,103.9-355.9
		c16.1-16.1,31.6-29.5,34.4-29.5c3.5,0,10.5-4.2,16.1-9.8c12.6-12.6,62.5-34.4,106.7-47c47-13.3,212.7-13.3,259.7,0
		c85.6,23.2,153,68.8,190.2,128.5c18.3,28.8,37.9,103.2,37.9,144.6v22.5l-120.7-1.4c-115.1-2.1-121.4-2.8-123.6-16.1
		c-4.9-35.1-9.8-46.3-24.6-62.5c-9.1-9.8-25.3-21.1-35.8-25.3c-24.6-9.1-96.2-9.1-120.7,0.7c-42.8,16.1-73,73.7-73,139.7v21.1h250.6
		h249.9l-4.2,89.9c-5.6,105.3-11.9,136.9-42.1,198c-45.6,92.7-129.9,150.9-247.1,171.3
		C7220.8,15264.2,7194.2,15264.2,7121.8,15248.7z M7279.8,15052.9c27.4-14.7,46.3-47.7,53.4-90.6l4.9-30.2h-124.3h-124.3l4.9,26.7
		c7.7,41.4,31.6,77.2,62.5,92.7C7192.7,15069.7,7247.5,15069.7,7279.8,15052.9z"/>
	<path class="st0" d="M7936.2,15250.1c-103.2-17.6-158.7-51.2-204.3-122.2c-19-30.2-37.9-99-37.9-136.9
		c0-63.9,32.3-136.2,77.2-174.1c33.7-28.1,111.6-59,189.5-73.7c125.7-24.6,148.8-33.7,165.7-65.3c11.2-20.4,0-45.6-26-59
		c-11.2-5.6-39.3-9.8-66-9.8c-70.2,0-109.5,25.3-117.2,73.7c-2.1,13.3-8.4,14-120.7,16.1l-118.6,1.4l4.9-36.5
		c14-105.3,81.4-176.2,211.3-221.1c44.9-15.4,214.1-17.5,266.8-2.8c46.3,12.6,94.1,35.8,115.8,55.5c9.8,8.4,19.7,15.4,22.5,15.4
		c9.8,0,45.6,60.4,57.6,96.2c18.3,54.8,16.8,156.6-2.8,200.8c-37.9,85.6-103.9,122.9-270.3,152.3c-115.8,21.1-143.9,35.1-143.9,71.6
		c0,27.4,33.7,47.7,79.3,47.7c50.5,0,77.9-14.7,93.4-48.4l12.6-28.8h115.1H8356l-4.9,40c-12.6,108.1-99,184.6-236.6,209.2
		C8044.3,15264.2,8012.7,15263.5,7936.2,15250.1z"/>
	<path class="st0" d="M6037.2,15162.4c14.7-43.5,39.3-122.2,55.5-174.1c16.1-51.9,32.3-99.7,35.1-105.3c3.5-6.3,8.4-21.8,11.2-35.1
		c2.8-13.3,7.7-27.4,10.5-31.6c2.8-3.5,9.1-24.6,14-45.6c4.9-21.1,11.9-43.5,14.7-49.1c6.3-12.6,74.4-226.8,80.7-254.1l4.2-19.7
		h135.5c134.8,0,136.2,0,140.4,16.1c9.1,33,61.8,198.7,67.4,212c2.8,7.7,12.6,36.5,20.4,63.2c8.4,27.4,24.6,75.8,35.1,108.8
		s26.7,83.5,35.8,112.3c8.4,28.8,18.3,56.2,21.1,59.7c2.1,4.2,8.4,24.6,13.3,45.6s11.2,42.1,14,45.6c2.8,4.2,7.7,18.3,10.5,31.6
		c2.8,13.3,7.7,28.1,10.5,31.6c2.8,4.2,8.4,20.4,11.9,37.2l7.7,29.5h-121.4c-108.8,0-122.2-1.4-126.4-11.9
		c-7.7-20.4-77.2-292-98.3-384.7c-17.6-79.3-25.3-99-33-85.6c-5.6,11.2-44.2,155.1-66,250.6c-5.6,25.3-14.7,63.2-20.4,84.2
		s-13.3,52.7-17.6,70.2c-4.2,17.5-10.5,42.1-14.7,54.8l-7.7,22.5h-134.8h-135.5L6037.2,15162.4z"/>
	<path class="st0" d="M1853.2,15016.4c-40.7-2.8-173.4-9.8-294.8-16.1c-121.4-6.3-266.8-14.7-322.9-19
		c-56.2-3.5-169.9-10.5-252.7-14c-82.8-4.2-161.5-9.1-173.4-11.2l-23.2-4.2v-248.5v-248.5l16.1-3.5c8.4-2.1,273.1-2.8,587.6-1.4
		l572.1,1.4l2.1,280.1c1.4,291.3,1.4,293.4-26.7,290.6C1931.8,15021.3,1893.9,15019.2,1853.2,15016.4z"/>
</g>
</svg>
